<svg xmlns="http://www.w3.org/2000/svg" xmlns:xlink="http://www.w3.org/1999/xlink" version="1.0" id="Layer_1" x="0px" y="0px" viewBox="0 0 506 244" enable-background="new 0 0 506 244" xml:space="preserve"><g id="culvers"><g><path fill="#005696" d="M500 93.2c-2.5-2.6-5.7-4.2-9.2-5c0-0.1 0-0.2 0-0.3c0-0.5 0-1-0.1-1.5c-0.5-3.6-1.3-6.8-2.1-9.6 c-3.7-10.8-10.1-13.1-14.3-13.4c-0.6-5.5-2.1-9.4-4-13.5c-0.8-1.6-1.4-3.2-1.9-4.9c1.1-5.4 1.2-11.9-2.5-16.5 c-2.4-3.2-6.2-5-10.1-5l0 0c-0.9 0-1.7 0.1-2.6 0.3c-1 0.2-1.8 0.4-2.7 0.6C449.8 11.5 441.7 2 431.1 2c-7 0-14.3 4.2-20.1 11.3 c-5.6 7-8.7 15.4-8.7 23.8c0 4.6 0.9 8.2 2 10.9c-0.2 0.3-0.5 0.5-0.7 0.8h-0.1c-5.3 0.5-10 2.2-13.8 3.6c-2.1-2.1-5.5-4.1-11-4.1 c-7.5 0-14.6 3.8-20.4 10.8c-3.5-3-8-4.6-12.8-4.6c-11.3 0-21 5.8-27.1 10.6c-5.3 4.2-10.1 9.4-13.6 14.6 c-3.2-3.5-7.6-5.2-13.1-5.2c-1.3 0-2.4 0.1-3.5 0.1h-0.1H288c-4.6 0.3-10.3 2.1-15.4 7.9c-0.9-0.5-1.7-0.9-2.7-1.3 c-3.1-1.2-6.9-1.7-11.4-1.7c-2.5 0-5.6 0.5-8.7 2c0.8-5.9 1.3-12.5 1.3-19.6c0-4.3-1-9.3-2.5-13.2c-4.3-11-12.3-12.2-15.5-12.2 c-0.9 0-1.7 0.1-2.7 0.2c-7.6 1.4-14.4 7-20.8 17.3c-4.4 7.1-8.7 16.8-12.5 28c-1.8 5.5-3.5 11.3-4.9 16.9c-5.4-7.4-8.9-9-12.7-9 c-7.9 0-14.9 5.8-22.4 18.6c-2.1-1.3-4.7-2.2-8.1-2.8c-2-0.4-4.1-0.5-6-0.5c-4.8 0-10.6 1.1-16.2 4.8c9.7-25 10.5-44.1 2.6-57 c-5.2-8.5-14.2-13.5-23.8-13.5c-9.2 0-20.3 5.3-32.9 15.7c-10.8 8.9-22 21-32.6 34.9c-11 14.5-20.4 29.8-27 44.4 c-7.8 17.1-11.8 32.5-11.8 45.9c0 16.7 5.3 32.2 15 43.8c9.4 11.2 21.8 17.6 34.2 17.6c32.7 0 54.3-28.4 67.2-45.3 c0.4-0.5 0.8-1 1.1-1.4c4.6 3.9 11 7.4 19.1 7.4c9.3 0 14.8-5.1 18.2-10.4c4 3.2 8.7 4.9 14 4.9c13.7 0 20.8-8.6 25.5-15.7 c5.3 5.6 12.6 8.7 21 8.7c13.9 0 23.1-8.4 29.4-17c2.6 1.7 6.1 3.2 10.7 3.5c0.7 0.1 1.4 0.1 2 0.1c15.8 0 25.5-14.6 30.5-24.5 c0.7 0.1 1.1 0.1 1.4 0.1c6 0 11.1-2.3 15.1-4.7c4.4 4.9 9 7.8 13.8 9c3.1 0.8 6.1 1.1 9.2 1.1c18.6 0 32.2-13.6 40.4-25.1 c0.2-0.3 0.4-0.6 0.7-0.9c3.8 10.5 12.6 16.9 23.8 16.9c1.3 0 2.4-0.1 3.7-0.2c13-1.5 21.5-13 26.9-21.5c3.8 3.5 9.4 7.5 17.6 7.5 c9.6 0 21.3-5.3 31.6-14.2c0.3-0.2 0.6-0.5 0.8-0.8c3.4 3.4 7.9 5.2 12.7 5.2c10.1 0 18.3-8.2 18.3-18.3 C505.2 101.3 503.3 96.7 500 93.2z M225.3 136.3c0.7-1.2 2.2-3.2 3.5-4.9c0.1-0.2 0.2-0.3 0.3-0.5c-0.1 0.9-0.1 1.4-0.1 1.4 c0 0.2 0 0.4 0 0.6c0 3.6-1 6.3-2.9 8.3C225.7 139.7 225.4 137.9 225.3 136.3z M97.6 163c-2.6 3.1-5.6 6.5-8.8 9.8 c-16 16.9-22.5 18.7-23.2 18.8c-3.6 0-4.8-0.6-5.6-1.4c-0.9-0.9-3.7-4.8-3.2-17.8c0.1-1.3 0.1-2.5 0.3-3.8 c0.5 0.4 1.1 0.7 1.5 1.1c4.9 3 10 4.4 15.3 4.4C82.3 174.2 90.3 170.6 97.6 163z"/><g><g><path fill="#FFFFFF" d="M413.7 58.1c17.8-0.7 26-21.5 26-32.2c0-5.9-2.7-13.4-8.7-13.4c-7.3 0-18.2 11.4-18.2 24.4 c0 8.7 4 9.7 3.9 11.1C416.4 53.3 405.2 58.5 413.7 58.1z M471.2 74.6c0 13.7-7.8 24.4-16.5 25.1c5.5-7.6 7-10.3 8.4-19.9 c2.9-22.5-3-22.4-5.7-34.8c0 0 3.2-12.1-2.4-11c-23.8 4.4-7.1 11.8-40.8 64.5c-5.8 9.3-13.7 12-14.3 11.9 c-11.8-2 10.2-21.7 11.1-28.3c1.8-15.1-2.9-23.2-6.6-22.9c-8.6 0.8-15.9 6.2-22.7 5.8c0 0 4.1-6.2-3.1-6.2 c-14.3 0-22.5 25.8-22.5 32.7c0 3.5 2.7 6.4 2.7 7.3c0 4.1-13.6 27.4-24 27.4c-6.1 0-7-7-7-8.2c0-4.6 27.8-17 27.8-39.7 c0-5.8-2.5-13.4-10.2-13.4c-14.6 0-29.1 14.3-33.8 23.7c-13.3 25.6 0.8 29.1-14.4 34.4c0 0-7 2-4.5-5.7 c0.9-4.6 4.2-8.5 5.6-17.7c2.2-15.4-3.6-15-9.7-14.6c-13.7 1-17.1 27.5-17.1 35c0 3.6 0 5.8 0 9.5c0 2.8-6.2 15.5-11.8 15.7 c-2.6 0.1-3.4-9.4-3.4-11.6c0-6 13.9-18.7 13.9-37.2c0-5.9-7.2-6.6-11.9-6.6c-16.3 0-18.8 43-18.8 43c0 18-15.9 21.8-16.1 21.8 c-7.7 0-8.9-19-8.9-19c-0.4-9.8 25.8-21.6 25.8-74c0-5.5-2.4-15.8-8.2-14.8c-18.7 3.3-36.3 68.3-34.7 90.8 c-1.6 4.2-15.8 23.3-21.2 23.3c-2.6 0-2.5-2.2-2.5-5.3c0-12.8 15.9-29.9 15.9-37.2c0-7.3-9.6-18.2-10.2-18.2 c-9.1 0-22.4 30.4-24.8 40.6c-2 8.6-14.3 26.6-18.8 24.9c-8.1-3 14.3-29.6 17.6-37.2c2.9-6.6 1.9-11.2-6.2-12.6 c-26.2-4.5-28.2 33-30.6 40.4c-0.3 0.9-35.1 45.8-50.7 45.8c-8.1 0-20.7-1.9-19.6-30.2C48 129 90 76.5 99.8 74.9 c6-1.1-1.5 30.7-12.6 38c-18.1 11.9-39.7 37.7-22.9 47.8c25.5 15.5 44.1-35.5 44.1-35.5c30.7-61.3 8.9-75-2.9-75 c-27.2 0-93.7 80.3-93.7 130.2c0 31 20.5 50.8 38.5 50.8c35.6 0 57.2-42.2 67.7-51.9c2.9 3 9.6 12.6 19.7 12.6 c11.8 0 11.9-16.3 18.1-20.5c1.5 4.2 4.2 15 14.2 15c16.1 0 17.7-19 27.5-24.3c2.3 12.1 9.9 17.3 18.9 17.3 c13.5 0 21.1-12.2 27.2-23c5.1 4 6.1 9 13.7 9.6c16.4 1.4 25.2-26.4 26-26.7c0 0 5.4 2.3 7.1 2.3c9.1 0 16.2-9.7 17.5-8.5 c0.4 0.4 6.7 11.3 13.9 13c30.2 7.2 49-36.4 53.6-49.8c0.2-0.6 7.1-3.5 10.6-4.9c-2.4 7-10.2 19.3-7.3 33.5 c1.6 8.2 7.3 13.9 17.2 12.7c13.8-1.6 22.3-24.4 25.3-25c6.6-1.3 10 11 20.5 11c14.3 0 38.5-19.1 38.5-35.6 C479.9 85.9 477.8 70.8 471.2 74.6z M212.4 110.9l-0.1-0.2v-0.1c0-5.9 9-27.7 12.3-32.2c1-1.3 2.1-0.8 2.6-0.5 c0.6 0.5 2.1 1.6-1.9 13.2c-0.1 0.2-7.2 21-11.3 21C213.6 112.2 212.8 112.1 212.4 110.9z M324.9 99.4 c-1.1-3.5 6.8-15.3 11.4-16.7c2.1-0.6 3.5 0.3 4 1.1c1.4 2.4-1.3 7.4-4.5 11C328.4 102 325.1 100.1 324.9 99.4z M440.1 95.8 c-1.5 0-4.5-1.6-6.7-3.1c8.2-16.4 8-19.7 11-22c3.9 2.6 4.7 3.5 4.7 9.6C449.2 87.4 445 95.8 440.1 95.8z"/></g><g><path fill="#FFFFFF" d="M486.8 113.8c-4.3 0-7.6-3.5-7.6-7.6c0-4.2 3.4-7.7 7.7-7.7s7.6 3.5 7.6 7.6 C494.6 110.3 491.2 113.8 486.8 113.8z M486.9 99.3c-3.9 0-6.8 3.1-6.8 6.9c0 3.8 2.9 6.8 6.8 6.8s6.8-3.1 6.8-6.9 C493.7 102.4 490.8 99.3 486.9 99.3z M488.8 107.1l2 2.9h-2.1l-1.7-2.6h-1.4v2.6h-1.8v-8.1h3.6c1.9 0 3.2 1 3.2 2.7 C490.6 105.9 489.8 106.8 488.8 107.1z M487.3 103.5h-1.7v2.4h1.8c0.9 0 1.4-0.5 1.4-1.2C488.8 103.9 488.2 103.5 487.3 103.5z"/></g></g></g></g></svg>