<?xml version="1.0" encoding="UTF-8" standalone="no"?>
<svg
   xmlns:dc="http://purl.org/dc/elements/1.1/"
   xmlns:cc="http://creativecommons.org/ns#"
   xmlns:rdf="http://www.w3.org/1999/02/22-rdf-syntax-ns#"
   xmlns:svg="http://www.w3.org/2000/svg"
   xmlns="http://www.w3.org/2000/svg"
   viewBox="0 0 760.61334 372.58667"
   height="372.58667"
   width="760.61334"
   xml:space="preserve"
   id="svg2"
   version="1.1"><metadata
     id="metadata8"><rdf:RDF><cc:Work
         rdf:about=""><dc:format>image/svg+xml</dc:format><dc:type
           rdf:resource="http://purl.org/dc/dcmitype/StillImage" /></cc:Work></rdf:RDF></metadata><defs
     id="defs6" /><g
     transform="matrix(1.3333333,0,0,-1.3333333,0,372.58667)"
     id="g10"><g
       transform="scale(0.1)"
       id="g12"><path
         id="path14"
         style="fill:#f47216;fill-opacity:1;fill-rule:nonzero;stroke:none"
         d="m 2334.11,1980.78 c 16.39,0 24.4,19.2 12.48,30.01 -219.13,198.34 -911.72,783.57 -1455.762,783.57 -605.031,0 -821.1522,-484.2 -890.128781,-717.13 -3.292969,-11.1 5.457031,-22.06 17.484381,-22.06 7.8125,0 14.6836,4.75 17.1758,11.86 32.9648,94.44 235.6916,501.29 742.2146,543.21 582.386,48.2 1327.086,-485.91 1529.996,-626.24 3.08,-2.12 6.71,-3.22 10.52,-3.22 h 16.02" /><path
         id="path16"
         style="fill:#dd1731;fill-opacity:1;fill-rule:nonzero;stroke:none"
         d="m 3393.93,847.871 c -15.76,0 -23.47,-20.019 -12,-31.269 C 3592.71,609.891 4258.94,0 4782.27,0 c 581.98,0 815.5,504.609 881.85,747.352 3.17,11.57 -5.24,22.988 -16.81,22.988 -7.52,0 -14.13,-4.949 -16.53,-12.36 C 5599.07,659.559 5378.43,235.57 4891.2,191.879 4330.98,141.648 3614.65,698.27 3419.46,844.512 c -2.96,2.218 -6.45,3.359 -10.11,3.359 h -15.42" /><path
         id="path18"
         style="fill:#231f20;fill-opacity:1;fill-rule:nonzero;stroke:none"
         d="m 359.664,1254.61 c 0,-57.43 4.098,-97.24 12.313,-119.43 12.054,-31.37 31.843,-56.71 59.347,-76 27.508,-19.31 59.356,-28.95 95.547,-28.95 75.277,0 136.074,42.35 182.402,127.03 46.325,84.69 69.489,171.18 69.489,259.49 0,65.14 -15.563,115.44 -46.688,150.92 -31.125,35.46 -69.847,53.2 -116.172,53.2 -33.297,0 -64.183,-8.81 -92.652,-26.42 -28.473,-17.62 -54.895,-43.92 -79.262,-78.9 -24.371,-35 -44.511,-77.81 -60.433,-128.48 -15.922,-50.67 -23.891,-94.82 -23.891,-132.46 z M 100.539,645.879 322.754,1709.17 h 120.879 l -22.442,-107.13 c 44.879,46.81 85.047,79.26 120.52,97.36 35.469,18.1 72.98,27.14 112.551,27.14 73.343,0 134.144,-26.66 182.402,-79.98 48.25,-53.33 72.387,-129.69 72.387,-229.09 0,-80.1 -13.278,-153.09 -39.813,-218.96 -26.543,-65.87 -59.113,-118.83 -97.715,-158.87 -38.609,-40.058 -77.695,-69.492 -117.261,-88.308 -39.571,-18.82 -80.106,-28.242 -121.602,-28.242 -92.176,0 -163.586,46.808 -214.25,140.43 L 231.555,645.879 H 100.539" /><path
         id="path20"
         style="fill:#231f20;fill-opacity:1;fill-rule:nonzero;stroke:none"
         d="m 1367.8,1326.23 c -54.3,0 -94.69,-1.7 -121.15,-5.13 -26.47,-3.42 -49.52,-9.24 -69.13,-17.45 -31.04,-12.32 -55.91,-32.51 -74.61,-60.58 -18.72,-28.06 -28.06,-58.76 -28.06,-92.07 0,-37.87 11.74,-68.1 35.24,-90.68 23.5,-22.6 55.33,-33.89 95.49,-33.89 67.53,0 125.83,24.18 174.89,72.55 49.04,48.37 82.24,114.76 99.59,199.19 l 5.48,28.06 z m 253.95,52.02 -85.56,-437.379 h -125.95 l 21.91,113.629 c -32.86,-42.91 -71.65,-75.879 -116.37,-98.91 -44.72,-23.039 -92.18,-34.57 -142.37,-34.57 -69.82,0 -125.6,19.062 -167.36,57.16 -41.745,38.08 -62.624,88.64 -62.624,151.61 0,89.43 35.246,160.96 105.754,214.58 70.5,53.61 165.98,80.43 286.45,80.43 h 168.39 l 8.21,41.76 c 0.91,4.1 1.59,8.43 2.05,12.99 0.45,4.57 0.69,10.96 0.69,19.17 0,38.79 -14.38,68.56 -43.12,89.33 -28.75,20.75 -69.82,31.14 -123.21,31.14 -39.25,0 -81.57,-5.81 -126.97,-17.45 -45.42,-11.63 -93.43,-29.1 -144.09,-52.37 l 23.96,123.21 c 49.28,17.79 96.05,31.15 140.32,40.04 44.26,8.91 86.69,13.35 127.31,13.35 84.88,0 150.93,-18.71 198.16,-56.13 47.23,-37.42 70.84,-89.22 70.84,-155.37 0,-14.62 -1.36,-33.78 -4.1,-57.5 -2.74,-23.74 -6.85,-49.97 -12.32,-78.72" /><path
         id="path22"
         style="fill:#231f20;fill-opacity:1;fill-rule:nonzero;stroke:none"
         d="m 1598.73,643.699 7.97,123.063 c 27.02,-7.723 53.31,-11.59 78.89,-11.59 26.53,0 48.01,6.039 64.42,18.09 21.23,15.929 44.39,45.859 69.49,89.769 l 41.98,75.27 -128.12,770.869 h 128.84 l 57.91,-388.69 c 11.58,-76.73 21.47,-153.45 29.67,-230.17 l 343.82,618.86 h 136.8 L 1940.37,838.41 c -47.29,-84.922 -89.28,-141.14 -125.94,-168.648 -36.67,-27.5 -78.9,-41.25 -126.67,-41.25 -30.4,0 -60.08,5.058 -89.03,15.187" /><path
         id="path24"
         style="fill:#231f20;fill-opacity:1;fill-rule:nonzero;stroke:none"
         d="m 2350.85,940.469 242.34,1161.061 h 131.02 L 2481.86,940.469 h -131.01" /><path
         id="path26"
         style="fill:#231f20;fill-opacity:1;fill-rule:nonzero;stroke:none"
         d="m 2832.79,1243.06 c 0,-125.15 68.12,-215.46 180.6,-215.46 155.26,0 272.48,199.62 272.48,378.63 0,88.72 -41.19,213.87 -179.02,213.87 -164.75,0 -275.64,-201.2 -274.06,-377.04 z m 587.74,161.59 c 0,-236.05 -167.92,-481.599 -424.57,-481.599 -191.69,0 -299.42,142.579 -299.42,315.249 0,251.9 175.85,486.35 424.57,486.35 207.53,0 299.42,-156.83 299.42,-320" /><path
         id="path28"
         style="fill:#231f20;fill-opacity:1;fill-rule:nonzero;stroke:none"
         d="m 4048.67,975.629 c -33.22,-17.75 -68.84,-31.289 -106.84,-40.617 -38,-9.321 -77.47,-13.992 -118.43,-13.992 -101.96,0 -179.09,25.601 -231.43,76.8 -52.33,51.2 -78.5,126.85 -78.5,226.98 0,67.8 12.17,134.37 36.52,199.68 24.34,65.29 57.23,120.25 98.65,164.86 42.32,45.05 88.85,78.72 139.6,101.03 50.74,22.29 106.37,33.44 166.9,33.44 40.51,0 79.65,-4.89 117.42,-14.67 37.77,-9.79 74.64,-24.46 110.6,-44.03 l -25.26,-124.25 c -30.04,26.4 -61,45.75 -92.84,58.04 -31.86,12.28 -67.14,18.42 -105.81,18.42 -50.07,0 -94.45,-10.13 -133.12,-30.37 -38.69,-20.26 -71.67,-50.64 -98.98,-91.14 -25.5,-37.32 -45.4,-79.99 -59.74,-128 -14.33,-48.01 -21.5,-95.69 -21.5,-143.01 0,-65.53 15.58,-114.81 46.76,-147.79 31.17,-33.01 77.7,-49.5 139.6,-49.5 43.69,0 85.68,7.05 125.95,21.17 40.28,14.09 79.3,35.5 117.07,64.17 l -26.62,-137.221" /><path
         id="path30"
         style="fill:#231f20;fill-opacity:1;fill-rule:nonzero;stroke:none"
         d="m 4372.89,1853.21 31.12,148.38 h 130.29 l -31.13,-148.38 z M 4181.8,940.469 4342.49,1709.17 H 4473.5 L 4312.81,940.469 H 4181.8" /><path
         id="path32"
         style="fill:#231f20;fill-opacity:1;fill-rule:nonzero;stroke:none"
         d="M 5567.79,1709.17 5223.96,1090.3 c -8.2,76.73 -18.09,153.45 -29.67,230.18 l -57.9,388.69 h -317.53 l 58.63,279.39 -149.83,-90.47 -39.81,-188.92 h -103.51 l -20.99,-101.33 h 103.51 l -93.38,-446.6 c -12.55,-60.81 -18.82,-99.65 -18.82,-116.54 0,-33.29 11.58,-59.598 34.75,-78.891 30.88,-25.579 72.38,-38.36 124.5,-38.36 29.43,0 59.82,4.09 91.2,12.301 l 21.72,107.12 c -22.7,-5.79 -48.5,-8.68 -77.46,-8.68 -20.26,0 -34.87,4.1 -43.79,12.3 -8.93,8.2 -13.39,20.02 -13.39,35.46 0,10.62 5.55,42.96 16.65,97.01 l 89.03,424.88 h 226.51 l 111.28,-669.539 -41.99,-75.27 c -25.09,-43.91 -48.26,-73.84 -69.48,-89.769 -16.41,-12.051 -37.89,-18.09 -64.42,-18.09 -25.58,0 -51.88,3.867 -78.89,11.59 l -7.97,-123.063 c 28.96,-10.129 58.63,-15.187 89.03,-15.187 47.77,0 89.99,13.75 126.67,41.25 36.67,27.508 78.64,83.726 125.95,168.648 l 490.03,870.76 h -136.8" /></g></g></svg>